<mxfile host="65bd71144e">
    <diagram id="w-prKBsJkt_nMAEY23sJ" name="Page-1">
        <mxGraphModel dx="1098" dy="790" grid="1" gridSize="10" guides="1" tooltips="1" connect="1" arrows="1" fold="1" page="1" pageScale="1" pageWidth="850" pageHeight="1100" math="0" shadow="0">
            <root>
                <mxCell id="0"/>
                <mxCell id="1" parent="0"/>
                <mxCell id="its4XrSHzpQiEURqKt7x-4" value="&lt;div&gt;Livreur à domicile&lt;/div&gt;" style="shape=umlActor;verticalLabelPosition=bottom;verticalAlign=top;html=1;" parent="1" vertex="1">
                    <mxGeometry x="40" y="520" width="40" height="80" as="geometry"/>
                </mxCell>
                <mxCell id="its4XrSHzpQiEURqKt7x-5" value="&lt;div&gt;Client&lt;/div&gt;" style="shape=umlActor;verticalLabelPosition=bottom;verticalAlign=top;html=1;fontFamily=Helvetica;fontSize=12;" parent="1" vertex="1">
                    <mxGeometry x="880" y="360" width="40" height="80" as="geometry"/>
                </mxCell>
                <mxCell id="its4XrSHzpQiEURqKt7x-6" value="Séléctionne un plat" style="ellipse;whiteSpace=wrap;html=1;fontFamily=Helvetica;fontSize=12;" parent="1" vertex="1">
                    <mxGeometry x="400" y="200" width="160" height="80" as="geometry"/>
                </mxCell>
                <mxCell id="3" value="" style="edgeStyle=none;html=1;" edge="1" parent="1" source="its4XrSHzpQiEURqKt7x-7" target="ITYDxngbUXltHcwv3hhO-6">
                    <mxGeometry relative="1" as="geometry"/>
                </mxCell>
                <mxCell id="its4XrSHzpQiEURqKt7x-7" value="&lt;div&gt;Reçoit une mission&lt;/div&gt;" style="ellipse;whiteSpace=wrap;html=1;fontFamily=Helvetica;fontSize=12;" parent="1" vertex="1">
                    <mxGeometry x="160" y="520" width="160" height="80" as="geometry"/>
                </mxCell>
                <mxCell id="its4XrSHzpQiEURqKt7x-19" value="Envoie le suivi de géolocalisation" style="ellipse;whiteSpace=wrap;html=1;fontFamily=Helvetica;fontSize=12;" parent="1" vertex="1">
                    <mxGeometry x="400" y="360" width="160" height="80" as="geometry"/>
                </mxCell>
                <mxCell id="its4XrSHzpQiEURqKt7x-20" value="" style="endArrow=open;endSize=12;dashed=1;html=1;rounded=0;fontFamily=Helvetica;fontSize=12;exitX=1;exitY=0.5;exitDx=0;exitDy=0;" parent="1" source="its4XrSHzpQiEURqKt7x-19" edge="1">
                    <mxGeometry width="160" relative="1" as="geometry">
                        <mxPoint x="500" y="380" as="sourcePoint"/>
                        <mxPoint x="640" y="400" as="targetPoint"/>
                    </mxGeometry>
                </mxCell>
                <mxCell id="ITYDxngbUXltHcwv3hhO-2" value="S'autentifie" style="ellipse;whiteSpace=wrap;html=1;" parent="1" vertex="1">
                    <mxGeometry x="640" y="200" width="160" height="80" as="geometry"/>
                </mxCell>
                <mxCell id="ITYDxngbUXltHcwv3hhO-4" value="Entre les coordonnées de la livraison" style="ellipse;whiteSpace=wrap;html=1;" parent="1" vertex="1">
                    <mxGeometry x="160" y="200" width="160" height="80" as="geometry"/>
                </mxCell>
                <mxCell id="ITYDxngbUXltHcwv3hhO-6" value="Règle la commande" style="ellipse;whiteSpace=wrap;html=1;" parent="1" vertex="1">
                    <mxGeometry x="160" y="360" width="160" height="80" as="geometry"/>
                </mxCell>
                <mxCell id="ITYDxngbUXltHcwv3hhO-10" value="Suit la commande" style="ellipse;whiteSpace=wrap;html=1;" parent="1" vertex="1">
                    <mxGeometry x="640" y="360" width="160" height="80" as="geometry"/>
                </mxCell>
                <mxCell id="ITYDxngbUXltHcwv3hhO-11" value="Reçoit la livraison" style="ellipse;whiteSpace=wrap;html=1;" parent="1" vertex="1">
                    <mxGeometry x="640" y="520" width="160" height="80" as="geometry"/>
                </mxCell>
                <mxCell id="ITYDxngbUXltHcwv3hhO-13" value="" style="endArrow=open;endFill=1;endSize=12;html=1;rounded=0;entryX=1;entryY=0.5;entryDx=0;entryDy=0;" parent="1" target="ITYDxngbUXltHcwv3hhO-10" edge="1" source="its4XrSHzpQiEURqKt7x-5">
                    <mxGeometry width="160" relative="1" as="geometry">
                        <mxPoint x="760" y="400" as="sourcePoint"/>
                        <mxPoint x="570" y="340" as="targetPoint"/>
                    </mxGeometry>
                </mxCell>
                <mxCell id="ITYDxngbUXltHcwv3hhO-16" value="Livre la commande" style="ellipse;whiteSpace=wrap;html=1;" parent="1" vertex="1">
                    <mxGeometry x="400" y="520" width="160" height="80" as="geometry"/>
                </mxCell>
                <mxCell id="2" value="" style="endArrow=classic;html=1;entryX=0;entryY=0.5;entryDx=0;entryDy=0;" edge="1" parent="1" source="its4XrSHzpQiEURqKt7x-4" target="its4XrSHzpQiEURqKt7x-7">
                    <mxGeometry width="50" height="50" relative="1" as="geometry">
                        <mxPoint x="90" y="440" as="sourcePoint"/>
                        <mxPoint x="320" y="430" as="targetPoint"/>
                    </mxGeometry>
                </mxCell>
                <mxCell id="4" value="" style="endArrow=classic;html=1;exitX=0.5;exitY=1;exitDx=0;exitDy=0;entryX=0.5;entryY=0;entryDx=0;entryDy=0;" edge="1" parent="1" source="ITYDxngbUXltHcwv3hhO-4" target="ITYDxngbUXltHcwv3hhO-6">
                    <mxGeometry width="50" height="50" relative="1" as="geometry">
                        <mxPoint x="270" y="290" as="sourcePoint"/>
                        <mxPoint x="320" y="240" as="targetPoint"/>
                    </mxGeometry>
                </mxCell>
                <mxCell id="5" value="" style="endArrow=classic;html=1;entryX=1;entryY=0.5;entryDx=0;entryDy=0;exitX=0;exitY=0.5;exitDx=0;exitDy=0;" edge="1" parent="1" source="its4XrSHzpQiEURqKt7x-6" target="ITYDxngbUXltHcwv3hhO-4">
                    <mxGeometry width="50" height="50" relative="1" as="geometry">
                        <mxPoint x="270" y="290" as="sourcePoint"/>
                        <mxPoint x="320" y="240" as="targetPoint"/>
                    </mxGeometry>
                </mxCell>
                <mxCell id="6" value="" style="endArrow=classic;html=1;entryX=1;entryY=0.5;entryDx=0;entryDy=0;exitX=0;exitY=0.5;exitDx=0;exitDy=0;" edge="1" parent="1" source="ITYDxngbUXltHcwv3hhO-2" target="its4XrSHzpQiEURqKt7x-6">
                    <mxGeometry width="50" height="50" relative="1" as="geometry">
                        <mxPoint x="660" y="290" as="sourcePoint"/>
                        <mxPoint x="710" y="240" as="targetPoint"/>
                    </mxGeometry>
                </mxCell>
                <mxCell id="8" value="" style="endArrow=classic;html=1;exitX=1;exitY=0.5;exitDx=0;exitDy=0;entryX=0;entryY=0.5;entryDx=0;entryDy=0;" edge="1" parent="1" source="its4XrSHzpQiEURqKt7x-7" target="ITYDxngbUXltHcwv3hhO-16">
                    <mxGeometry width="50" height="50" relative="1" as="geometry">
                        <mxPoint x="420" y="390" as="sourcePoint"/>
                        <mxPoint x="470" y="340" as="targetPoint"/>
                    </mxGeometry>
                </mxCell>
                <mxCell id="9" value="" style="endArrow=classic;html=1;entryX=0.5;entryY=0;entryDx=0;entryDy=0;exitX=0.5;exitY=1;exitDx=0;exitDy=0;" edge="1" parent="1" source="ITYDxngbUXltHcwv3hhO-10" target="ITYDxngbUXltHcwv3hhO-11">
                    <mxGeometry width="50" height="50" relative="1" as="geometry">
                        <mxPoint x="760" y="440" as="sourcePoint"/>
                        <mxPoint x="470" y="340" as="targetPoint"/>
                    </mxGeometry>
                </mxCell>
                <mxCell id="15" value="&amp;lt;&amp;lt;include&amp;gt;&amp;gt;" style="endArrow=open;endSize=12;dashed=1;html=1;rounded=0;exitX=0.5;exitY=0;exitDx=0;exitDy=0;entryX=0.5;entryY=1;entryDx=0;entryDy=0;" edge="1" parent="1" source="ITYDxngbUXltHcwv3hhO-10" target="ITYDxngbUXltHcwv3hhO-2">
                    <mxGeometry width="160" relative="1" as="geometry">
                        <mxPoint x="640" y="160" as="sourcePoint"/>
                        <mxPoint x="400" y="160" as="targetPoint"/>
                        <Array as="points"/>
                    </mxGeometry>
                </mxCell>
            </root>
        </mxGraphModel>
    </diagram>
</mxfile>